<svg width="89" height="85" viewBox="0 0 89 85" fill="none" xmlns="http://www.w3.org/2000/svg">
<path d="M25.1573 25.9189C28.0433 23.0328 34.3054 16.6074 42.8001 19.7657C49.2256 22.1616 62.8388 27.8792 71.7691 30.4929L73.8383 30.1117C69.2098 14.4837 54.7798 3.10303 37.6815 3.10303C16.8804 3.10303 0 19.9835 0 40.7845C0 61.5856 16.8804 78.4661 37.6815 78.4661C51.7849 78.4661 64.0912 70.6793 70.5712 59.2441C58.537 59.0808 55.651 49.8782 52.8195 51.6207C51.8393 52.2197 49.7156 53.581 47.1563 54.9423L50.0424 58.4273C55.7599 65.5607 48.7355 70.2436 48.7355 70.2436L46.9385 68.2289C45.795 71.1149 43.3446 72.7485 43.3446 72.7485L40.5131 69.5358C39.7507 70.2981 39.1517 70.6793 39.1517 70.6793L30.4393 60.8777L32.6174 52.4375C32.6174 52.4375 32.7807 52.4919 33.2708 52.7098C35.2311 46.8833 45.4138 38.4975 48.4088 36.0471L47.3742 35.6115H35.6667C35.6667 35.6115 35.0678 37.8985 30.0036 41.2746C36.0479 57.8283 23.2515 60.4421 23.2515 60.4421C23.2515 60.4421 19.1675 45.8487 16.9894 40.4034C14.8112 35.1214 22.2713 28.8593 25.1573 25.9189Z" fill="url(#paint0_radial_122_309)"/>
<path d="M25.2118 47.5909C31.365 57.3924 36.9737 51.7293 36.9737 51.7293L43.8347 32.0173L32.6174 30.9282L24.5039 44.1603L25.2118 47.5909Z" fill="#34C7FF" stroke="white" stroke-width="0.885449" stroke-miterlimit="10"/>
<path d="M77.7032 29.4036L71.7679 30.4927C62.8376 27.8245 49.2243 22.1613 42.7988 19.7654C34.3586 16.6071 28.0965 23.0326 25.156 25.9186C22.27 28.8046 14.81 35.0667 16.9336 40.4031C19.1118 45.8484 23.1957 60.4418 23.1957 60.4418C23.1957 60.4418 35.9922 57.7736 29.9479 41.2744C35.012 37.8983 35.611 35.6112 35.611 35.6112H47.3729L79.2279 52.5461" fill="white"/>
<path d="M77.7032 29.4036L71.7679 30.4927C62.8376 27.8245 49.2243 22.1613 42.7988 19.7654C34.3586 16.6071 28.0965 23.0326 25.156 25.9186C22.27 28.8046 14.81 35.0667 16.9336 40.4031C19.1118 45.8484 23.1957 60.4418 23.1957 60.4418C23.1957 60.4418 35.9922 57.7736 29.9479 41.2744C35.012 37.8983 35.611 35.6112 35.611 35.6112H47.3729L79.2279 52.5461" stroke="white" stroke-width="0.885449" stroke-miterlimit="10" stroke-linecap="round" stroke-linejoin="round"/>
<path d="M41.8203 62.5111L48.6814 70.2434C48.6814 70.2434 55.7603 65.5604 49.9883 58.4271L45.033 52.4917L41.8203 62.5111Z" fill="white" stroke="url(#paint1_linear_122_309)" stroke-width="0.885449" stroke-miterlimit="10"/>
<path d="M35.3398 63.8178L43.29 72.8025C43.29 72.8025 51.5124 67.3572 44.8147 59.0803L39.0426 52.1104L35.3398 63.8178Z" fill="white" stroke="url(#paint2_linear_122_309)" stroke-width="0.885449" stroke-miterlimit="10"/>
<path d="M30.3867 60.9319L39.0992 70.7335C39.0992 70.7335 48.0295 64.7981 40.7873 55.7589C34.144 53.0907 32.5648 52.4917 32.5648 52.4917L30.3867 60.9319Z" fill="white" stroke="url(#paint3_linear_122_309)" stroke-width="0.885449" stroke-miterlimit="10"/>
<path d="M30.4941 64.7981L33.1623 68.0108C34.2514 69.3721 36.2662 69.5355 37.6275 68.4464C38.9888 67.3574 39.1522 65.3426 38.0631 63.9813L35.3949 60.7686L30.4941 64.7981Z" fill="url(#paint4_linear_122_309)"/>
<path d="M41.3301 56.7389C41.3301 56.7389 54.8344 66.2682 72.096 59.2982C89.3577 52.2738 56.9037 43.5068 56.9037 43.5068L44.7062 49.8234L41.3301 56.7389Z" fill="#BD02AA" fill-opacity="0.4" stroke="url(#paint5_linear_122_309)" stroke-width="0.885449" stroke-miterlimit="10"/>
<path d="M52.8199 13.4487L19.6035 73.8916C21.7816 75.0896 24.1231 76.0697 26.5191 76.8321L57.1761 20.9633" fill="#BD02AA"/>
<path d="M57.1746 20.9631L64.2535 8.05777L57.7191 4.46387L52.8184 13.4486" fill="#BD02AA"/>
<path d="M18.6227 76.7231L18.0781 85L25.1026 79.7181C22.87 78.9557 20.6919 77.9756 18.6227 76.7231Z" fill="#34C7FF"/>
<path d="M87.9436 52.2737C80.7014 53.744 75.6372 59.0259 71.6622 59.2982C58.7568 59.6794 55.7074 49.8778 52.8214 51.6748C49.9354 53.4717 36.6489 62.0753 33.2728 56.1399C29.8967 50.2045 49.2275 35.4478 49.2275 35.4478" fill="white"/>
<path d="M87.9436 52.2737C80.7014 53.744 75.6372 59.0259 71.6622 59.2982C58.7568 59.6794 55.7074 49.8778 52.8214 51.6748C49.9354 53.4717 36.6489 62.0753 33.2728 56.1399C29.8967 50.2045 49.2275 35.4478 49.2275 35.4478" stroke="#34C7FF" stroke-width="0.885449" stroke-miterlimit="10" stroke-linecap="round" stroke-linejoin="round"/>
<path d="M39.7507 48.2988L36.2657 50.6403C34.7955 51.6205 34.4688 53.5808 35.4489 55.051C36.4291 56.5212 38.3894 56.848 39.8596 55.8678L43.3446 53.5263L39.7507 48.2988Z" fill="url(#paint6_linear_122_309)"/>
<path d="M20.8194 51.8805L21.7968 56.0746C22.196 57.8326 23.174 58.8348 23.96 58.2319C24.7518 57.6864 25.0504 55.7987 24.6512 54.0407L23.6738 49.8466L20.8194 51.8805Z" fill="url(#paint7_linear_122_309)"/>
<path d="M23.7422 39.7495C23.7422 39.7495 26.4648 41.3831 30.0043 41.2742" stroke="#34C7FF" stroke-width="0.885449" stroke-miterlimit="10" stroke-linecap="round" stroke-linejoin="round"/>
<path d="M33.543 32.3984C33.543 32.3984 34.142 34.4132 35.6666 35.5567" stroke="#34C7FF" stroke-width="0.885449" stroke-miterlimit="10" stroke-linecap="round" stroke-linejoin="round"/>
<path d="M65.3982 6.53322L65.7794 5.87978C66.814 3.97393 66.1605 1.57799 64.2547 0.488932C62.3488 -0.545676 59.9529 0.10776 58.8638 2.01362L58.5371 2.72151L65.3982 6.53322Z" fill="#34C7FF"/>
<path d="M49.2266 35.4475C49.2266 35.4475 52.7116 33.1605 57.2856 33.2694" stroke="#34C7FF" stroke-width="0.885449" stroke-miterlimit="10" stroke-linecap="round"/>
<defs>
<radialGradient id="paint0_radial_122_309" cx="0" cy="0" r="1" gradientUnits="userSpaceOnUse" gradientTransform="translate(34 7.5) rotate(56.8763) scale(84.1799 82.4768)">
<stop stop-color="#34C7FF"/>
<stop offset="1" stop-color="#BD02AA"/>
</radialGradient>
<linearGradient id="paint1_linear_122_309" x1="47.037" y1="52.4917" x2="47.037" y2="70.2434" gradientUnits="userSpaceOnUse">
<stop stop-color="#34C7FF"/>
<stop offset="1" stop-color="#BD02AA"/>
</linearGradient>
<linearGradient id="paint2_linear_122_309" x1="41.3908" y1="52.1104" x2="41.3908" y2="72.8025" gradientUnits="userSpaceOnUse">
<stop stop-color="#34C7FF"/>
<stop offset="1" stop-color="#BD02AA"/>
</linearGradient>
<linearGradient id="paint3_linear_122_309" x1="37.0033" y1="52.4917" x2="37.0033" y2="70.7335" gradientUnits="userSpaceOnUse">
<stop stop-color="#34C7FF"/>
<stop offset="1" stop-color="#BD02AA"/>
</linearGradient>
<linearGradient id="paint4_linear_122_309" x1="34.636" y1="60.7686" x2="34.636" y2="69.1612" gradientUnits="userSpaceOnUse">
<stop stop-color="#34C7FF"/>
<stop offset="1" stop-color="#BD02AA"/>
</linearGradient>
<linearGradient id="paint5_linear_122_309" x1="59.2423" y1="43.5068" x2="59.2423" y2="61.848" gradientUnits="userSpaceOnUse">
<stop stop-color="#34C7FF"/>
<stop offset="1" stop-color="#F45827" stop-opacity="0"/>
</linearGradient>
<linearGradient id="paint6_linear_122_309" x1="39.1167" y1="48.2988" x2="39.1167" y2="56.4281" gradientUnits="userSpaceOnUse">
<stop stop-color="#34C7FF"/>
<stop offset="1" stop-color="#BD02AA"/>
</linearGradient>
<linearGradient id="paint7_linear_122_309" x1="22.4545" y1="49.9718" x2="23.3222" y2="58.4274" gradientUnits="userSpaceOnUse">
<stop stop-color="#34C7FF"/>
<stop offset="1" stop-color="#BD02AA"/>
</linearGradient>
</defs>
</svg>
